<svg width="1182" height="1308" viewBox="0 0 1182 1308" fill="none" xmlns="http://www.w3.org/2000/svg">
<path d="M1130.18 902.745L614.578 387.143H1001.28C1003.12 387.143 1004.96 387.143 1006.8 386.223C1009.57 387.143 1012.33 387.143 1015.09 387.143H1125.58C1141.23 387.143 1153.2 375.174 1153.2 359.522C1153.2 343.87 1141.23 331.9 1125.58 331.9H1015.09V221.414H1125.58C1141.23 221.414 1153.2 209.445 1153.2 193.793C1153.2 178.141 1141.23 166.171 1125.58 166.171H1015.09V55.6854H1127.42C1142.15 55.6854 1155.04 43.7161 1155.04 28.0639C1155.04 12.4117 1142.15 0.442383 1127.42 0.442383H1016.93C1013.25 0.442383 1010.49 1.3631 1007.72 2.28382C1005.88 1.3631 1003.12 0.442383 1001.28 0.442383H301.535C243.531 0.442383 174.476 68.5754 170.793 73.179L110.946 133.026L51.0998 192.872C-17.0333 261.005 -17.0333 372.412 51.0998 440.545L531.714 921.159H145.934C145.013 921.159 145.013 921.159 144.092 921.159C143.171 921.159 142.251 921.159 141.33 921.159H30.844C15.1918 921.159 3.2225 933.128 3.2225 948.78C3.2225 964.433 15.1918 976.402 30.844 976.402H132.123V1086.89H30.844C15.1918 1086.89 3.2225 1098.86 3.2225 1114.51C3.2225 1130.16 15.1918 1142.13 30.844 1142.13H132.123V1252.62H30.844C15.1918 1252.62 3.2225 1264.59 3.2225 1280.24C3.2225 1295.89 15.1918 1307.86 30.844 1307.86H141.33C142.251 1307.86 143.171 1307.86 144.092 1307.86C145.013 1307.86 145.013 1307.86 145.934 1307.86H939.591C957.087 1307.86 980.104 1298.65 993.915 1284.84L1130.18 1150.42C1199.23 1082.28 1199.23 970.878 1130.18 902.745ZM300.614 73.179C294.169 66.734 287.724 62.1304 281.279 58.4475C287.724 56.6061 294.169 55.6854 301.535 55.6854H959.847V331.9H559.335L300.614 73.179ZM186.445 1252.62V976.402H586.957L863.172 1252.62H186.445Z" fill="#0572F1"/>
</svg>
