<svg width="150" height="150" viewBox="0 0 150 150" fill="none" xmlns="http://www.w3.org/2000/svg">
<path d="M118.75 94.8451L76.4362 52.6479H108.171C108.322 52.6479 108.474 52.6479 108.625 52.5725C108.851 52.6479 109.078 52.6479 109.305 52.6479H118.372C119.656 52.6479 120.639 51.6683 120.639 50.3873C120.639 49.1063 119.656 48.1268 118.372 48.1268H109.305V39.0845H118.372C119.656 39.0845 120.639 38.1049 120.639 36.8239C120.639 35.543 119.656 34.5634 118.372 34.5634H109.305V25.5211H118.523C119.732 25.5211 120.79 24.5415 120.79 23.2606C120.79 21.9796 119.732 21 118.523 21H109.456C109.154 21 108.927 21.0754 108.7 21.1507C108.549 21.0754 108.322 21 108.171 21H50.7459C45.9857 21 40.3186 26.5761 40.0164 26.9528L35.105 31.8507L30.1936 36.7486C24.6021 42.3246 24.6021 51.4423 30.1936 57.0183L69.6358 96.3521H37.9762C37.9007 96.3521 37.9007 96.3521 37.8251 96.3521C37.7496 96.3521 37.674 96.3521 37.5984 96.3521H28.5313C27.2467 96.3521 26.2645 97.3317 26.2645 98.6127C26.2645 99.8937 27.2467 100.873 28.5313 100.873H36.8428V109.915H28.5313C27.2467 109.915 26.2645 110.895 26.2645 112.176C26.2645 113.457 27.2467 114.437 28.5313 114.437H36.8428V123.479H28.5313C27.2467 123.479 26.2645 124.458 26.2645 125.739C26.2645 127.02 27.2467 128 28.5313 128H37.5984C37.674 128 37.7496 128 37.8251 128C37.9007 128 37.9007 128 37.9762 128H103.109C104.545 128 106.434 127.246 107.567 126.116L118.75 115.115C124.417 109.539 124.417 100.421 118.75 94.8451ZM50.6703 26.9528C50.1414 26.4254 49.6125 26.0486 49.0835 25.7472C49.6125 25.5965 50.1414 25.5211 50.7459 25.5211H104.771V48.1268H71.9026L50.6703 26.9528ZM41.3009 123.479V100.873H74.1694L96.8374 123.479H41.3009Z" fill="white"/>
</svg>
