<svg width="1550" height="381" viewBox="0 0 1550 381" fill="none" xmlns="http://www.w3.org/2000/svg">
<path d="M1488.75 84.2627C1486.89 82.1237 1484.23 81.0542 1481.04 81.0542H1352.75C1349.82 81.0542 1347.42 82.1237 1345.29 84.2627C1343.43 86.4016 1342.63 89.0754 1342.63 91.7491V299.23C1342.63 301.904 1343.43 304.577 1345.29 306.716C1347.16 308.588 1349.82 309.657 1352.48 309.657H1367.39C1370.05 309.657 1372.71 308.855 1374.84 306.984C1376.97 304.845 1378.03 302.438 1378.03 299.497V216.077H1448.03C1450.69 216.077 1453.36 215.275 1455.48 213.403C1457.61 211.264 1458.68 208.591 1458.68 205.917V193.885C1458.68 190.944 1457.61 188.538 1455.48 186.666C1453.62 184.527 1450.96 183.458 1448.03 183.458H1378.03V113.941H1480.77C1483.7 113.941 1486.36 113.139 1488.49 111C1490.62 108.861 1491.68 106.455 1491.68 103.513V91.7491C1491.95 88.808 1490.88 86.1343 1488.75 84.2627Z" fill="white"/>
<path d="M1305.91 295.487L1259.06 213.938C1272.1 209.66 1282.75 202.441 1290.47 192.281C1298.99 181.319 1303.25 167.415 1303.25 150.571C1303.25 128.379 1296.06 110.733 1281.69 98.9681C1267.58 86.9364 1247.88 81.0542 1223.4 81.0542H1146.21C1143.28 81.0542 1140.89 82.1237 1138.76 84.2627C1136.9 86.4016 1136.1 89.0754 1136.1 91.7491V299.23C1136.1 301.904 1136.9 304.577 1138.76 306.716C1140.62 308.588 1143.28 309.657 1145.95 309.657H1161.12C1163.78 309.657 1166.44 308.855 1168.57 306.984C1170.7 304.845 1171.76 302.438 1171.76 299.497V219.82V216.612V190.677V187.468V113.139H1221.8C1237.24 113.139 1248.42 116.347 1255.6 122.497C1262.79 128.379 1266.52 137.47 1266.52 150.304C1266.52 163.137 1262.79 172.228 1255.6 178.11C1248.68 183.992 1238.04 187.201 1222.87 187.468V190.677V216.612V219.82H1223.13L1268.64 299.497C1270.24 302.438 1272.1 304.845 1273.97 306.716C1276.63 308.855 1279.82 309.657 1283.55 309.657H1297.39C1300.05 309.657 1302.18 308.588 1304.04 306.716C1305.91 304.845 1306.97 302.706 1306.97 300.032C1306.97 298.695 1306.71 297.091 1305.91 295.487Z" fill="white"/>
<path d="M1107.14 295.908L1028.63 90.0316C1027.56 87.0905 1025.97 84.9515 1023.57 83.3473C1021.17 81.743 1018.51 80.9409 1015.59 80.9409H995.357C992.429 80.9409 989.502 81.743 987.372 83.3473C984.977 84.9515 983.38 87.3579 982.315 90.0316L903.799 295.908L903 299.919V300.186C903 302.86 904.065 304.999 905.662 306.87C907.259 308.742 909.654 309.812 912.316 309.812H927.487C929.882 309.812 932.011 309.277 933.874 307.94C935.738 306.603 937.068 304.731 938.133 302.592L951.973 265.962L955.699 255.535L965.281 229.065L966.346 225.857L966.612 224.787L1005.47 123.72L1044.06 225.055L1044.6 226.124L1045.66 229.333L1054.71 255.802L1056.04 259.813L1072.54 302.592C1073.08 304.464 1074.41 306.068 1075.74 307.405L1076 307.673L1076.27 307.94C1078.4 309.544 1080.79 310.079 1083.46 310.079H1098.36C1101.02 310.079 1103.15 309.009 1105.01 307.405C1107.14 305.534 1108.21 303.395 1108.21 300.721V300.454L1107.14 295.908Z" fill="white"/>
<path d="M856.894 159.127C858.757 160.731 861.419 161.533 863.814 161.533H879.518C881.913 161.533 884.309 160.731 886.172 159.127C888.301 157.255 889.366 154.849 889.366 151.908V151.64C888.567 138.807 884.841 126.775 877.921 115.545C871.001 104.048 860.887 95.2249 847.312 88.2732C833.738 81.3215 817.237 77.8457 798.073 77.8457C769.328 77.8457 747.237 85.8669 731.533 101.909C716.362 117.952 708.378 139.609 707.313 166.881C707.047 172.763 707.047 182.388 707.047 195.49C707.047 201.906 707.047 207.521 707.047 212.334C707.047 217.147 707.047 220.89 707.313 223.831C708.378 251.103 716.362 273.027 731.533 289.07C746.971 305.112 769.328 312.866 798.073 312.866C817.237 312.866 833.738 309.39 847.312 302.706C860.887 295.754 871.001 286.663 877.921 275.166C884.841 263.937 888.833 251.905 889.366 239.071V238.804C889.366 236.13 888.301 233.724 886.172 232.12C884.309 230.248 881.913 229.446 879.518 229.446H863.814C861.153 229.446 858.757 230.248 856.894 231.852C854.765 233.456 853.7 236.13 852.902 238.804C849.442 254.579 843.054 265.006 834.537 270.889C825.754 277.038 813.776 280.247 798.339 280.247C780.507 280.247 767.465 275.434 758.682 265.808C749.898 256.45 744.841 241.745 744.043 221.959C743.777 215.81 743.777 206.987 743.777 194.955C743.777 189.073 743.777 183.993 743.777 179.447C743.777 175.169 743.777 171.426 744.043 168.752C744.841 148.699 749.632 133.994 758.682 124.636C767.465 115.278 780.507 110.198 798.339 110.198C814.043 110.198 826.02 113.406 834.537 119.556C843.054 125.438 849.442 136.133 852.902 151.908C853.7 154.849 855.031 157.523 856.894 159.127Z" fill="white"/>
<path d="M672.713 216.077C667.39 207.789 659.139 201.372 648.493 196.024C638.112 190.677 624.006 185.597 605.907 180.517C590.47 175.971 578.493 171.693 570.508 168.217C562.789 164.742 557.2 160.731 553.474 156.72C550.28 152.71 548.417 147.362 548.417 140.678C548.417 130.518 552.143 123.299 559.596 118.486C567.314 113.139 577.961 110.465 592.067 110.465C604.843 110.465 615.223 113.406 623.474 118.754C631.725 124.368 636.249 131.053 637.314 139.074V139.341V139.609C638.112 142.282 639.443 144.421 641.572 146.026C643.436 147.362 645.831 148.165 648.226 148.165H663.93C666.591 148.165 668.987 147.362 670.85 145.491C672.713 143.619 673.511 141.213 673.511 138.539C672.979 128.914 669.519 119.556 663.131 110.465C656.743 101.107 647.162 93.3532 635.185 87.471C623.207 81.3215 608.569 78.3804 591.801 78.3804C575.565 78.3804 561.459 81.0541 549.482 86.6689C537.504 92.0164 528.189 99.5028 521.535 109.128C515.147 118.486 511.953 129.448 511.953 141.48C511.953 153.779 514.349 164.207 519.672 172.763C522.333 176.773 525.527 180.517 529.253 183.992C532.98 187.468 537.504 190.409 542.295 193.083C552.409 198.431 565.451 203.511 581.687 208.323C598.721 213.403 611.23 217.681 619.747 221.157C628.264 224.366 634.12 228.376 637.846 232.387C641.572 236.397 643.702 241.477 643.702 248.162C643.702 258.322 639.709 266.343 631.725 271.958C623.74 277.84 610.964 280.781 593.398 280.781C577.162 280.781 564.919 277.573 556.668 271.958C548.151 265.808 543.36 258.589 541.763 250.568V250.301V250.033C540.964 247.627 539.634 245.488 537.771 243.884C535.907 242.28 533.512 241.477 531.117 241.477H515.679C513.018 241.477 510.622 242.547 508.759 244.419C506.896 246.29 506.098 248.429 506.098 251.103C506.63 262.065 510.356 272.493 517.01 282.118C524.196 291.476 534.31 298.962 547.352 304.577C560.66 310.192 576.097 313.133 593.664 313.133C606.706 313.133 618.417 311.796 629.063 308.855C639.443 305.914 648.759 301.636 656.477 296.021C672.447 284.257 680.432 267.68 680.432 246.825C680.698 234.258 678.036 224.098 672.713 216.077Z" fill="white"/>
<path d="M326.71 262.868L177.661 113.139H289.448C289.98 113.139 290.512 113.139 291.044 112.872C291.843 113.139 292.641 113.139 293.44 113.139H325.379C329.904 113.139 333.364 109.663 333.364 105.118C333.364 100.573 329.904 97.0968 325.379 97.0968H293.44V65.0121H325.379C329.904 65.0121 333.364 61.5363 333.364 56.9909C333.364 52.4456 329.904 48.9698 325.379 48.9698H293.44V16.8851H325.911C330.17 16.8851 333.896 13.4093 333.896 8.86394C333.896 4.31861 330.17 0.842773 325.911 0.842773H293.972C292.908 0.842773 292.109 1.11015 291.311 1.37752C290.778 1.11015 289.98 0.842773 289.448 0.842773H87.167C70.3995 0.842773 50.4371 20.6283 49.3724 21.9652L32.0721 39.3444L14.7718 56.7236C-4.92393 76.5091 -4.92393 108.861 14.7718 128.647L153.707 268.215H42.1861C41.92 268.215 41.92 268.215 41.6538 268.215C41.3877 268.215 41.1215 268.215 40.8553 268.215H8.91632C4.39162 268.215 0.931554 271.691 0.931554 276.236C0.931554 280.781 4.39162 284.257 8.91632 284.257H38.1938V316.342H8.91632C4.39162 316.342 0.931554 319.818 0.931554 324.363C0.931554 328.909 4.39162 332.384 8.91632 332.384H38.1938V364.469H8.91632C4.39162 364.469 0.931554 367.945 0.931554 372.49C0.931554 377.035 4.39162 380.511 8.91632 380.511H40.8553C41.1215 380.511 41.3877 380.511 41.6538 380.511C41.92 380.511 41.92 380.511 42.1861 380.511H271.615C276.672 380.511 283.326 377.838 287.319 373.827L326.71 334.791C346.672 315.005 346.672 282.653 326.71 262.868ZM86.9008 21.9652C85.0377 20.0936 83.1746 18.7567 81.3115 17.6872C83.1746 17.1525 85.0377 16.8851 87.167 16.8851H277.47V97.0968H161.691L86.9008 21.9652ZM53.8971 364.469V284.257H169.676L249.524 364.469H53.8971Z" fill="white"/>
<path d="M1516.37 18.6667C1500.75 18.6667 1488.04 31.377 1488.04 47C1488.04 62.623 1500.75 75.3334 1516.37 75.3334C1531.99 75.3334 1544.7 62.623 1544.7 47C1544.7 31.377 1531.99 18.6667 1516.37 18.6667ZM1516.37 69.6667C1503.87 69.6667 1493.7 59.4979 1493.7 47C1493.7 34.5022 1503.87 24.3334 1516.37 24.3334C1528.87 24.3334 1539.04 34.5022 1539.04 47C1539.04 59.4979 1528.87 69.6667 1516.37 69.6667Z" fill="white"/>
<path d="M1527.7 41.3333C1527.7 36.647 1523.89 32.8333 1519.2 32.8333H1505.04V61.1666H1510.7V49.8333H1514.85L1522.41 61.1666H1529.22L1521.44 49.4961C1523.23 49.009 1524.82 47.9465 1525.95 46.4718C1527.08 44.9972 1527.7 43.1919 1527.7 41.3333ZM1510.7 38.5H1519.2C1519.95 38.5 1520.67 38.7985 1521.21 39.3298C1521.74 39.8612 1522.04 40.5819 1522.04 41.3333C1522.04 42.0848 1521.74 42.8054 1521.21 43.3368C1520.67 43.8681 1519.95 44.1666 1519.2 44.1666H1510.7V38.5Z" fill="white"/>
</svg>
