<svg width="343" height="88" viewBox="0 0 343 88" fill="none" xmlns="http://www.w3.org/2000/svg">
<path d="M342.319 19.7788C341.891 19.2902 341.281 19.0459 340.548 19.0459H311.109C310.437 19.0459 309.888 19.2902 309.399 19.7788C308.971 20.2674 308.788 20.8782 308.788 21.4889V68.8838C308.788 69.4946 308.971 70.1053 309.399 70.5939C309.826 71.0215 310.437 71.2658 311.048 71.2658H314.468C315.079 71.2658 315.69 71.0825 316.178 70.655C316.667 70.1664 316.911 69.6167 316.911 68.9449V49.8892H332.974C333.585 49.8892 334.196 49.706 334.684 49.2785C335.173 48.7898 335.417 48.1791 335.417 47.5683V44.8199C335.417 44.1481 335.173 43.5984 334.684 43.1709C334.257 42.6823 333.646 42.438 332.974 42.438H316.911V26.5582H340.487C341.158 26.5582 341.769 26.375 342.258 25.8864C342.746 25.3978 342.991 24.8481 342.991 24.1763V21.4889C343.052 20.8171 342.807 20.2063 342.319 19.7788Z" fill="white"/>
<path d="M300.36 68.0287L289.61 49.4006C292.603 48.4234 295.046 46.7743 296.817 44.4535C298.772 41.9494 299.749 38.7734 299.749 34.9256C299.749 29.8563 298.1 25.8253 294.802 23.138C291.565 20.3896 287.045 19.0459 281.426 19.0459H263.714C263.042 19.0459 262.493 19.2902 262.004 19.7788C261.577 20.2674 261.393 20.8782 261.393 21.4889V68.8838C261.393 69.4946 261.577 70.1053 262.004 70.5939C262.432 71.0215 263.042 71.2658 263.653 71.2658H267.134C267.745 71.2658 268.356 71.0825 268.845 70.655C269.333 70.1664 269.577 69.6167 269.577 68.9449V50.7443V50.0114V44.087V43.3541V26.375H281.06C284.602 26.375 287.167 27.1079 288.816 28.5127C290.465 29.8563 291.32 31.9329 291.32 34.8646C291.32 37.7962 290.465 39.8728 288.816 41.2164C287.228 42.5601 284.785 43.293 281.304 43.3541V44.087V50.0114V50.7443H281.365L291.809 68.9449C292.176 69.6167 292.603 70.1664 293.031 70.5939C293.641 71.0825 294.374 71.2658 295.229 71.2658H298.405C299.016 71.2658 299.505 71.0215 299.932 70.5939C300.36 70.1664 300.604 69.6778 300.604 69.067C300.604 68.7617 300.543 68.3952 300.36 68.0287Z" fill="white"/>
<path d="M254.736 68.1509L236.719 21.1225C236.475 20.4506 236.108 19.962 235.558 19.5956C235.009 19.2291 234.398 19.0459 233.726 19.0459H229.084C228.412 19.0459 227.741 19.2291 227.252 19.5956C226.702 19.962 226.336 20.5117 226.092 21.1225L208.074 68.1509L207.891 69.067V69.1281C207.891 69.7389 208.135 70.2275 208.502 70.655C208.868 71.0825 209.418 71.3268 210.029 71.3268H213.51C214.06 71.3268 214.548 71.2047 214.976 70.8993C215.403 70.5939 215.709 70.1664 215.953 69.6778L219.129 61.3104L219.984 58.9284L222.183 52.8819L222.427 52.149L222.488 51.9047L231.405 28.818L240.261 51.9658L240.383 52.2101L240.628 52.943L242.704 58.9895L243.01 59.9057L246.796 69.6778C246.918 70.1053 247.224 70.4718 247.529 70.7772L247.59 70.8382L247.651 70.8993C248.14 71.2658 248.69 71.3879 249.3 71.3879H252.721C253.331 71.3879 253.82 71.1436 254.248 70.7772C254.736 70.3496 254.98 69.861 254.98 69.2503V69.1892L254.736 68.1509Z" fill="white"/>
<path d="M197.325 36.8783C197.752 37.2448 198.363 37.428 198.913 37.428H202.516C203.066 37.428 203.616 37.2448 204.043 36.8783C204.532 36.4508 204.776 35.9011 204.776 35.2293V35.1682C204.593 32.2366 203.738 29.4882 202.15 26.923C200.562 24.2967 198.241 22.2812 195.126 20.6932C192.011 19.1053 188.225 18.3113 183.827 18.3113C177.231 18.3113 172.162 20.1436 168.558 23.8081C165.077 27.4727 163.245 32.4198 163 38.6495C162.939 39.9932 162.939 42.1919 162.939 45.1847C162.939 46.6505 162.939 47.9331 162.939 49.0324C162.939 50.1318 162.939 50.9869 163 51.6587C163.245 57.8885 165.077 62.8967 168.558 66.5612C172.101 70.2258 177.231 71.997 183.827 71.997C188.225 71.997 192.011 71.203 195.126 69.6761C198.241 68.0881 200.562 66.0115 202.15 63.3853C203.738 60.8201 204.654 58.0717 204.776 55.14V55.079C204.776 54.4682 204.532 53.9185 204.043 53.5521C203.616 53.1245 203.066 52.9413 202.516 52.9413H198.913C198.302 52.9413 197.752 53.1245 197.325 53.491C196.836 53.8574 196.592 54.4682 196.409 55.079C195.615 58.6824 194.149 61.0644 192.195 62.4081C190.179 63.8128 187.431 64.5457 183.888 64.5457C179.796 64.5457 176.803 63.4464 174.788 61.2476C172.772 59.11 171.612 55.7508 171.429 51.2312C171.368 49.8264 171.368 47.8109 171.368 45.0625C171.368 43.7188 171.368 42.5584 171.368 41.5201C171.368 40.5429 171.368 39.6878 171.429 39.0771C171.612 34.4964 172.711 31.1372 174.788 28.9996C176.803 26.8619 179.796 25.7015 183.888 25.7015C187.492 25.7015 190.24 26.4344 192.195 27.8391C194.149 29.1828 195.615 31.6258 196.409 35.2293C196.592 35.9011 196.897 36.5119 197.325 36.8783Z" fill="white"/>
<path d="M155.061 49.8886C153.839 47.9953 151.946 46.5295 149.503 45.308C147.121 44.0864 143.884 42.926 139.731 41.7656C136.188 40.7273 133.44 39.75 131.608 38.9561C129.836 38.1621 128.554 37.2459 127.699 36.3298C126.966 35.4137 126.538 34.1921 126.538 32.6652C126.538 30.3444 127.393 28.6953 129.103 27.596C130.875 26.3744 133.318 25.7637 136.555 25.7637C139.486 25.7637 141.868 26.4355 143.762 27.657C145.655 28.9396 146.693 30.4665 146.938 32.2988V32.3599V32.4209C147.121 33.0317 147.426 33.5203 147.915 33.8868C148.342 34.1921 148.892 34.3754 149.442 34.3754H153.045C153.656 34.3754 154.206 34.1921 154.633 33.7646C155.061 33.3371 155.244 32.7874 155.244 32.1766C155.122 29.9779 154.328 27.8403 152.862 25.7637C151.396 23.626 149.197 21.8548 146.449 20.5112C143.701 19.1064 140.341 18.4346 136.494 18.4346C132.768 18.4346 129.531 19.0453 126.783 20.3279C124.034 21.5494 121.896 23.2596 120.37 25.4583C118.904 27.596 118.171 30.1001 118.171 32.8485C118.171 35.658 118.721 38.0399 119.942 39.9944C120.553 40.9105 121.286 41.7656 122.141 42.5595C122.996 43.3535 124.034 44.0254 125.133 44.6361C127.454 45.8576 130.447 47.0181 134.173 48.1174C138.082 49.2779 140.952 50.2551 142.907 51.0491C144.861 51.782 146.205 52.6981 147.06 53.6143C147.915 54.5304 148.403 55.6909 148.403 57.2178C148.403 59.5386 147.487 61.3709 145.655 62.6535C143.823 63.9972 140.891 64.669 136.86 64.669C133.134 64.669 130.325 63.9361 128.432 62.6535C126.477 61.2488 125.378 59.5997 125.011 57.7674V57.7064V57.6453C124.828 57.0956 124.523 56.607 124.095 56.2405C123.668 55.8741 123.118 55.6909 122.568 55.6909H119.026C118.415 55.6909 117.865 55.9352 117.438 56.3627C117.01 56.7902 116.827 57.2788 116.827 57.8896C116.949 60.3937 117.804 62.7757 119.331 64.9744C120.98 67.112 123.301 68.8222 126.294 70.1048C129.348 71.3874 132.89 72.0592 136.921 72.0592C139.914 72.0592 142.601 71.7538 145.044 71.082C147.426 70.4101 149.564 69.4329 151.335 68.1503C155 65.463 156.832 61.6763 156.832 56.9124C156.893 54.0418 156.282 51.7209 155.061 49.8886Z" fill="white"/>
<path d="M75.6616 60.5765L41.4591 26.374H67.1109C67.2331 26.374 67.3552 26.374 67.4774 26.313C67.6606 26.374 67.8438 26.374 68.0271 26.374H75.3562C76.3945 26.374 77.1885 25.58 77.1885 24.5418C77.1885 23.5035 76.3945 22.7095 75.3562 22.7095H68.0271V15.3804H75.3562C76.3945 15.3804 77.1885 14.5864 77.1885 13.5481C77.1885 12.5098 76.3945 11.7158 75.3562 11.7158H68.0271V4.38672H75.4783C76.4555 4.38672 77.3106 3.59273 77.3106 2.55444C77.3106 1.51615 76.4555 0.722168 75.4783 0.722168H68.1492C67.9049 0.722168 67.7217 0.783244 67.5385 0.84432C67.4163 0.783244 67.2331 0.722168 67.1109 0.722168H20.6933C16.8456 0.722168 12.2648 5.24178 12.0205 5.54716L8.05056 9.51709L4.08063 13.487C-0.438986 18.0066 -0.438986 25.3968 4.08063 29.9164L35.9622 61.798H10.3714C10.3104 61.798 10.3104 61.798 10.2493 61.798C10.1882 61.798 10.1271 61.798 10.0661 61.798H2.73696C1.69867 61.798 0.904683 62.592 0.904683 63.6303C0.904683 64.6686 1.69867 65.4626 2.73696 65.4626H9.45531V72.7917H2.73696C1.69867 72.7917 0.904683 73.5857 0.904683 74.624C0.904683 75.6623 1.69867 76.4563 2.73696 76.4563H9.45531V83.7854H2.73696C1.69867 83.7854 0.904683 84.5793 0.904683 85.6176C0.904683 86.6559 1.69867 87.4499 2.73696 87.4499H10.0661C10.1271 87.4499 10.1882 87.4499 10.2493 87.4499C10.3104 87.4499 10.3104 87.4499 10.3714 87.4499H63.0188C64.1794 87.4499 65.7063 86.8392 66.6224 85.923L75.6616 77.0059C80.2422 72.4863 80.2422 65.0961 75.6616 60.5765ZM20.6322 5.54716C20.2047 5.11963 19.7771 4.81425 19.3496 4.56995C19.7771 4.4478 20.2047 4.38672 20.6933 4.38672H64.3625V22.7095H37.7945L20.6322 5.54716ZM13.0588 83.7854V65.4626H39.6268L57.9496 83.7854H13.0588Z" fill="white"/>
</svg>
