<?xml version="1.0" encoding="UTF-8" standalone="no"?>
<!DOCTYPE svg PUBLIC "-//W3C//DTD SVG 1.1//EN"
 "http://www.w3.org/Graphics/SVG/1.1/DTD/svg11.dtd">
<!-- Generated by graphviz version 2.49.2 (20211016.1639)
 -->
<!-- Title: MTC Pages: 1 -->
<svg width="1280pt" height="128pt"
 viewBox="0.00 0.00 1280.00 128.00" xmlns="http://www.w3.org/2000/svg" xmlns:xlink="http://www.w3.org/1999/xlink">
<g id="graph0" class="graph" transform="scale(1 1) rotate(0) translate(4 124)">
<title>MTC</title>
<polygon fill="white" stroke="transparent" points="-4,4 -4,-124 1276,-124 1276,4 -4,4"/>
<!-- A -->
<g id="node1" class="node">
<title>A</title>
<path fill="#f8fafc" stroke="#64748b" d="M69,-90C69,-90 12,-90 12,-90 6,-90 0,-84 0,-78 0,-78 0,-66 0,-66 0,-60 6,-54 12,-54 12,-54 69,-54 69,-54 75,-54 81,-60 81,-66 81,-66 81,-78 81,-78 81,-84 75,-90 69,-90"/>
<text text-anchor="middle" x="40.5" y="-69.2" font-family="Helvetica,sans-Serif" font-size="11.00">Event arrives</text>
</g>
<!-- B -->
<g id="node2" class="node">
<title>B</title>
<path fill="#f8fafc" stroke="#64748b" d="M230.38,-101C230.38,-101 129.62,-75 129.62,-75 123.81,-73.5 123.81,-70.5 129.62,-69 129.62,-69 230.38,-43 230.38,-43 236.19,-41.5 247.81,-41.5 253.62,-43 253.62,-43 354.38,-69 354.38,-69 360.19,-70.5 360.19,-73.5 354.38,-75 354.38,-75 253.62,-101 253.62,-101 247.81,-102.5 236.19,-102.5 230.38,-101"/>
<text text-anchor="middle" x="242" y="-75.2" font-family="Helvetica,sans-Serif" font-size="11.00">Company already in</text>
<text text-anchor="middle" x="242" y="-63.2" font-family="Helvetica,sans-Serif" font-size="11.00">tracked company set?</text>
</g>
<!-- A&#45;&gt;B -->
<g id="edge1" class="edge">
<title>A&#45;&gt;B</title>
<path fill="none" stroke="#475569" d="M81.39,-72C89.41,-72 98.24,-72 107.52,-72"/>
<polygon fill="#475569" stroke="#475569" points="107.74,-75.5 117.74,-72 107.74,-68.5 107.74,-75.5"/>
</g>
<!-- C -->
<g id="node3" class="node">
<title>C</title>
<path fill="#f8fafc" stroke="#64748b" d="M658,-120C658,-120 601,-120 601,-120 595,-120 589,-114 589,-108 589,-108 589,-96 589,-96 589,-90 595,-84 601,-84 601,-84 658,-84 658,-84 664,-84 670,-90 670,-96 670,-96 670,-108 670,-108 670,-114 664,-120 658,-120"/>
<text text-anchor="middle" x="629.5" y="-99.2" font-family="Helvetica,sans-Serif" font-size="11.00">Keep tracked</text>
</g>
<!-- B&#45;&gt;C -->
<g id="edge2" class="edge">
<title>B&#45;&gt;C</title>
<path fill="none" stroke="#475569" d="M337.8,-79.38C413.88,-85.3 517.68,-93.38 578.46,-98.11"/>
<polygon fill="#475569" stroke="#475569" points="578.32,-101.61 588.56,-98.89 578.86,-94.63 578.32,-101.61"/>
<text text-anchor="middle" x="392.5" y="-86" font-family="Helvetica,sans-Serif" font-size="10.00">Yes</text>
</g>
<!-- D -->
<g id="node4" class="node">
<title>D</title>
<path fill="#f8fafc" stroke="#64748b" d="M483.94,-69.34C483.94,-69.34 430.06,-46.66 430.06,-46.66 424.53,-44.33 424.53,-39.67 430.06,-37.34 430.06,-37.34 483.94,-14.66 483.94,-14.66 489.47,-12.33 500.53,-12.33 506.06,-14.66 506.06,-14.66 559.94,-37.34 559.94,-37.34 565.47,-39.67 565.47,-44.33 559.94,-46.66 559.94,-46.66 506.06,-69.34 506.06,-69.34 500.53,-71.67 489.47,-71.67 483.94,-69.34"/>
<text text-anchor="middle" x="495" y="-45.2" font-family="Helvetica,sans-Serif" font-size="11.00">Set has free</text>
<text text-anchor="middle" x="495" y="-33.2" font-family="Helvetica,sans-Serif" font-size="11.00">capacity?</text>
</g>
<!-- B&#45;&gt;D -->
<g id="edge3" class="edge">
<title>B&#45;&gt;D</title>
<path fill="none" stroke="#475569" d="M327.28,-61.93C359.14,-58.12 394.99,-53.83 425.25,-50.22"/>
<polygon fill="#475569" stroke="#475569" points="425.78,-53.68 435.29,-49.02 424.95,-46.73 425.78,-53.68"/>
<text text-anchor="middle" x="392.5" y="-57" font-family="Helvetica,sans-Serif" font-size="10.00">No</text>
</g>
<!-- H -->
<g id="node8" class="node">
<title>H</title>
<path fill="#ecfdf5" stroke="#059669" d="M1260,-82C1260,-82 1137,-82 1137,-82 1131,-82 1125,-76 1125,-70 1125,-70 1125,-58 1125,-58 1125,-52 1131,-46 1137,-46 1137,-46 1260,-46 1260,-46 1266,-46 1272,-52 1272,-58 1272,-58 1272,-70 1272,-70 1272,-76 1266,-82 1260,-82"/>
<text text-anchor="middle" x="1198.5" y="-67.2" font-family="Helvetica,sans-Serif" font-size="11.00">Company&#45;level enrichment</text>
<text text-anchor="middle" x="1198.5" y="-55.2" font-family="Helvetica,sans-Serif" font-size="11.00">+ insights continue</text>
</g>
<!-- C&#45;&gt;H -->
<g id="edge7" class="edge">
<title>C&#45;&gt;H</title>
<path fill="none" stroke="#475569" d="M670.17,-101.64C752.06,-100.53 945.66,-96.05 1107,-78 1109.56,-77.71 1112.15,-77.41 1114.77,-77.09"/>
<polygon fill="#475569" stroke="#475569" points="1115.49,-80.52 1124.96,-75.77 1114.59,-73.58 1115.49,-80.52"/>
</g>
<!-- E -->
<g id="node5" class="node">
<title>E</title>
<path fill="#f8fafc" stroke="#64748b" d="M951,-82C951,-82 848,-82 848,-82 842,-82 836,-76 836,-70 836,-70 836,-58 836,-58 836,-52 842,-46 848,-46 848,-46 951,-46 951,-46 957,-46 963,-52 963,-58 963,-58 963,-70 963,-70 963,-76 957,-82 951,-82"/>
<text text-anchor="middle" x="899.5" y="-67.2" font-family="Helvetica,sans-Serif" font-size="11.00">Add company and</text>
<text text-anchor="middle" x="899.5" y="-55.2" font-family="Helvetica,sans-Serif" font-size="11.00">consume 1 MTC credit</text>
</g>
<!-- D&#45;&gt;E -->
<g id="edge4" class="edge">
<title>D&#45;&gt;E</title>
<path fill="none" stroke="#475569" d="M562.46,-45.63C634.97,-49.6 750.68,-55.92 825.62,-60.02"/>
<polygon fill="#475569" stroke="#475569" points="825.74,-63.53 835.91,-60.58 826.12,-56.54 825.74,-63.53"/>
<text text-anchor="middle" x="629.5" y="-54" font-family="Helvetica,sans-Serif" font-size="10.00">Yes</text>
</g>
<!-- F -->
<g id="node6" class="node">
<title>F</title>
<path fill="#f8fafc" stroke="#64748b" d="M806,-36C806,-36 700,-36 700,-36 694,-36 688,-30 688,-24 688,-24 688,-12 688,-12 688,-6 694,0 700,0 700,0 806,0 806,0 812,0 818,-6 818,-12 818,-12 818,-24 818,-24 818,-30 812,-36 806,-36"/>
<text text-anchor="middle" x="753" y="-21.2" font-family="Helvetica,sans-Serif" font-size="11.00">Remove least</text>
<text text-anchor="middle" x="753" y="-9.2" font-family="Helvetica,sans-Serif" font-size="11.00">recently seen company</text>
</g>
<!-- D&#45;&gt;F -->
<g id="edge5" class="edge">
<title>D&#45;&gt;F</title>
<path fill="none" stroke="#475569" d="M554.01,-34.79C565.59,-33.45 577.67,-32.12 589,-31 617.93,-28.14 649.81,-25.48 677.64,-23.33"/>
<polygon fill="#475569" stroke="#475569" points="677.99,-26.81 687.69,-22.56 677.46,-19.83 677.99,-26.81"/>
<text text-anchor="middle" x="629.5" y="-34" font-family="Helvetica,sans-Serif" font-size="10.00">No</text>
</g>
<!-- E&#45;&gt;H -->
<g id="edge8" class="edge">
<title>E&#45;&gt;H</title>
<path fill="none" stroke="#475569" d="M963.12,-64C1007.21,-64 1066.69,-64 1114.7,-64"/>
<polygon fill="#475569" stroke="#475569" points="1114.76,-67.5 1124.76,-64 1114.76,-60.5 1114.76,-67.5"/>
</g>
<!-- G -->
<g id="node7" class="node">
<title>G</title>
<path fill="#f8fafc" stroke="#64748b" d="M1076,-36C1076,-36 993,-36 993,-36 987,-36 981,-30 981,-24 981,-24 981,-12 981,-12 981,-6 987,0 993,0 993,0 1076,0 1076,0 1082,0 1088,-6 1088,-12 1088,-12 1088,-24 1088,-24 1088,-30 1082,-36 1076,-36"/>
<text text-anchor="middle" x="1034.5" y="-15.2" font-family="Helvetica,sans-Serif" font-size="11.00">Add new company</text>
</g>
<!-- F&#45;&gt;G -->
<g id="edge6" class="edge">
<title>F&#45;&gt;G</title>
<path fill="none" stroke="#475569" d="M818.12,-18C863.97,-18 925.36,-18 970.87,-18"/>
<polygon fill="#475569" stroke="#475569" points="970.91,-21.5 980.91,-18 970.91,-14.5 970.91,-21.5"/>
</g>
<!-- G&#45;&gt;H -->
<g id="edge9" class="edge">
<title>G&#45;&gt;H</title>
<path fill="none" stroke="#475569" d="M1088.1,-32.93C1099.62,-36.21 1112.01,-39.73 1124.17,-43.18"/>
<polygon fill="#475569" stroke="#475569" points="1123.28,-46.56 1133.86,-45.93 1125.19,-39.83 1123.28,-46.56"/>
</g>
</g>
</svg>
